<svg width="872" height="905" viewBox="0 0 872 905" fill="none" xmlns="http://www.w3.org/2000/svg">
<path d="M451.5 280.336L599.734 365.919V537.084L451.5 622.667L303.266 537.084V365.919L451.5 280.336Z" fill="url(#paint0_radial_443350_4903)"/>
<path fill-rule="evenodd" clip-rule="evenodd" d="M363.363 413.853L405.887 438.418L537.631 362.314L495.108 337.749L451.019 363.217L363.363 413.853ZM405.888 440.666C405.83 440.666 405.772 440.662 405.715 440.652C405.594 440.632 405.475 440.59 405.365 440.527L360.756 414.757C360.433 414.57 360.234 414.226 360.234 413.853C360.234 413.48 360.433 413.136 360.756 412.949L494.586 335.64C494.909 335.453 495.306 335.453 495.629 335.64L540.239 361.41C540.562 361.596 540.76 361.941 540.76 362.314C540.76 362.686 540.562 363.031 540.239 363.217L451.019 414.757L406.409 440.527C406.248 440.62 406.068 440.666 405.888 440.666Z" fill="white"/>
<path fill-rule="evenodd" clip-rule="evenodd" d="M406.93 542.098L449.454 566.663V517.533L406.93 492.968V542.098ZM450.497 569.514C450.317 569.514 450.137 569.467 449.975 569.374L405.365 543.604C405.043 543.418 404.844 543.073 404.844 542.7V491.161C404.844 490.788 405.043 490.444 405.365 490.257C405.688 490.071 406.086 490.071 406.408 490.257L451.018 516.027C451.341 516.213 451.54 516.558 451.54 516.931V568.47C451.54 568.843 451.341 569.188 451.018 569.374C450.857 569.467 450.677 569.514 450.497 569.514Z" fill="white"/>
<path fill-rule="evenodd" clip-rule="evenodd" d="M362.32 464.793L404.844 489.358V440.228L362.32 415.664V464.793ZM405.887 492.209C405.707 492.209 405.527 492.163 405.365 492.069L360.755 466.3C360.433 466.113 360.234 465.769 360.234 465.396V413.856C360.234 413.483 360.433 413.139 360.755 412.952C361.078 412.766 361.476 412.766 361.798 412.952L406.408 438.722C406.731 438.909 406.93 439.253 406.93 439.626V491.166C406.93 491.538 406.731 491.883 406.408 492.069C406.247 492.163 406.067 492.209 405.887 492.209Z" fill="white"/>
<path fill-rule="evenodd" clip-rule="evenodd" d="M452.583 362.314L495.107 386.878L537.631 362.314L495.107 337.749L452.583 362.314ZM495.107 389.127C494.927 389.127 494.747 389.08 494.586 388.987L449.976 363.217C449.653 363.031 449.454 362.686 449.454 362.314C449.454 361.941 449.653 361.596 449.976 361.41L494.586 335.64C494.908 335.453 495.306 335.453 495.629 335.64L540.239 361.41C540.561 361.596 540.76 361.941 540.76 362.314C540.76 362.686 540.561 363.031 540.239 363.217L495.629 388.987C495.468 389.08 495.287 389.127 495.107 389.127Z" fill="white"/>
<path fill-rule="evenodd" clip-rule="evenodd" d="M407.973 491.157L449.454 515.119V467.195L407.973 491.157ZM450.497 517.97C450.317 517.97 450.137 517.924 449.975 517.831L405.366 492.061C405.043 491.874 404.844 491.53 404.844 491.157C404.844 490.784 405.043 490.44 405.366 490.253L449.975 464.483C450.298 464.297 450.696 464.297 451.018 464.483C451.341 464.67 451.54 465.014 451.54 465.387V516.927C451.54 517.3 451.341 517.644 451.018 517.831C450.857 517.924 450.677 517.97 450.497 517.97Z" fill="white"/>
<mask id="mask0_443350_4903" style="mask-type:alpha" maskUnits="userSpaceOnUse" x="360" y="387" width="92" height="28">
<path d="M360.234 387.039H451.54V414.896H360.234V387.039Z" fill="white"/>
</mask>
<g mask="url(#mask0_443350_4903)">
<path fill-rule="evenodd" clip-rule="evenodd" d="M365.17 412.809H446.605L405.887 389.288L365.17 412.809ZM450.497 414.896H361.277C360.805 414.896 360.392 414.579 360.27 414.123C360.147 413.666 360.347 413.185 360.756 412.949L405.366 387.179C405.688 386.992 406.086 386.992 406.409 387.179L451.019 412.949C451.428 413.185 451.627 413.666 451.505 414.123C451.383 414.579 450.969 414.896 450.497 414.896Z" fill="white"/>
</g>
<path fill-rule="evenodd" clip-rule="evenodd" d="M362.32 464.794L403.038 488.315L362.32 417.751V464.794ZM405.887 492.209C405.708 492.209 405.528 492.164 405.366 492.07L360.755 466.3C360.433 466.113 360.234 465.769 360.234 465.396V413.856C360.234 413.384 360.551 412.97 361.007 412.848C361.464 412.726 361.944 412.926 362.18 413.335L406.79 490.644C407.026 491.053 406.958 491.57 406.624 491.904C406.424 492.105 406.156 492.209 405.887 492.209Z" fill="white"/>
<path fill-rule="evenodd" clip-rule="evenodd" d="M407.973 542.704L449.454 566.667V518.742L407.973 542.704ZM450.497 569.518C450.317 569.518 450.137 569.471 449.975 569.378L405.365 543.608C405.043 543.421 404.844 543.077 404.844 542.704C404.844 542.331 405.043 541.987 405.365 541.8L449.975 516.03C450.298 515.844 450.696 515.844 451.018 516.03C451.341 516.217 451.54 516.561 451.54 516.934V568.474C451.54 568.847 451.341 569.191 451.018 569.378C450.857 569.471 450.677 569.518 450.497 569.518Z" fill="white"/>
<path fill-rule="evenodd" clip-rule="evenodd" d="M409.78 389.126L450.497 412.647L491.215 389.126H409.78ZM450.497 414.896C450.317 414.896 450.137 414.849 449.975 414.756L405.366 388.986C404.957 388.75 404.757 388.269 404.88 387.812C405.002 387.356 405.415 387.039 405.887 387.039H495.107C495.579 387.039 495.992 387.356 496.115 387.812C496.237 388.269 496.037 388.75 495.629 388.986L451.018 414.756C450.857 414.849 450.677 414.896 450.497 414.896Z" fill="white"/>
<path fill-rule="evenodd" clip-rule="evenodd" d="M409.78 387.035H491.215L450.497 363.514L409.78 387.035ZM495.107 389.122H405.887C405.415 389.122 405.002 388.805 404.88 388.349C404.757 387.893 404.957 387.411 405.366 387.175L449.976 361.405C450.298 361.219 450.696 361.219 451.019 361.405L495.629 387.175C496.037 387.411 496.237 387.893 496.115 388.349C495.992 388.805 495.579 389.122 495.107 389.122Z" fill="white"/>
<mask id="mask1_443350_4903" style="mask-type:alpha" maskUnits="userSpaceOnUse" x="449" y="361" width="92" height="29">
<path d="M449.454 361.266H540.76V389.122H449.454V361.266Z" fill="white"/>
</mask>
<g mask="url(#mask1_443350_4903)">
<path fill-rule="evenodd" clip-rule="evenodd" d="M454.39 363.353L495.107 386.874L535.825 363.353H454.39ZM495.107 389.122C494.927 389.122 494.747 389.076 494.586 388.983L449.976 363.213C449.567 362.977 449.368 362.495 449.49 362.039C449.612 361.583 450.025 361.266 450.497 361.266H539.717C540.189 361.266 540.603 361.583 540.725 362.039C540.847 362.495 540.648 362.977 540.239 363.213L495.629 388.983C495.468 389.076 495.287 389.122 495.107 389.122Z" fill="white"/>
</g>
<path d="M451.5 212L659.779 332.25V572.75L451.5 693L243.221 572.75V332.25L451.5 212Z" stroke="#2680E5" stroke-width="2" stroke-linecap="round" stroke-linejoin="round" stroke-dasharray="0.5 10"/>
<path opacity="0.56" d="M451.5 113L745.516 282.75V622.25L451.5 792L157.484 622.25V282.75L451.5 113Z" stroke="#2680E5" stroke-width="2" stroke-linecap="round" stroke-linejoin="round" stroke-dasharray="0.5 10"/>
<path opacity="0.2" d="M451.5 1L842.51 226.75V678.25L451.5 904L60.4895 678.25V226.75L451.5 1Z" stroke="#2680E5" stroke-width="2" stroke-linecap="round" stroke-linejoin="round" stroke-dasharray="0.5 10"/>
<defs>
<radialGradient id="paint0_radial_443350_4903" cx="0" cy="0" r="1" gradientUnits="userSpaceOnUse" gradientTransform="translate(303.266 259.737) scale(342.83 395.866)">
<stop stop-color="#2FC6FF"/>
<stop offset="1" stop-color="#1C40CD"/>
</radialGradient>
</defs>
</svg>
