<svg width="98" height="98" viewBox="0 0 98 98" fill="none" xmlns="http://www.w3.org/2000/svg">
<path fill-rule="evenodd" clip-rule="evenodd" d="M60.7602 56.8419C60.7602 59.0068 59.0051 60.7619 56.8402 60.7619C54.6752 60.7619 52.9202 59.0068 52.9202 56.8419C52.9202 54.6769 54.6752 52.9219 56.8402 52.9219C59.0051 52.9219 60.7602 54.6769 60.7602 56.8419ZM60.7602 72.5216C60.7602 74.6865 59.0051 76.4416 56.8402 76.4416C54.6752 76.4416 52.9202 74.6865 52.9202 72.5216C52.9202 70.3566 54.6752 68.6016 56.8402 68.6016C59.0051 68.6016 60.7602 70.3566 60.7602 72.5216ZM72.5202 60.7619C74.6851 60.7619 76.4402 59.0068 76.4402 56.8419C76.4402 54.6769 74.6851 52.9219 72.5202 52.9219C70.3552 52.9219 68.6002 54.6769 68.6002 56.8419C68.6002 59.0068 70.3552 60.7619 72.5202 60.7619ZM76.4401 72.5216C76.4401 74.6865 74.6851 76.4416 72.5201 76.4416C70.3551 76.4416 68.6001 74.6865 68.6001 72.5216C68.6001 70.3566 70.3551 68.6016 72.5201 68.6016C74.6851 68.6016 76.4401 70.3566 76.4401 72.5216Z" fill="url(#paint0_radial_443339_1700)"/>
<path d="M37.2401 17.6406H25.4801C23.4008 17.6406 21.4067 18.4666 19.9364 19.9369C18.4661 21.4072 17.6401 23.4013 17.6401 25.4806V37.2406C17.6401 39.3199 18.4661 41.3141 19.9364 42.7843C21.4067 44.2546 23.4008 45.0806 25.4801 45.0806H37.2401C39.3194 45.0806 41.3136 44.2546 42.7839 42.7843C44.2541 41.3141 45.0801 39.3199 45.0801 37.2406V25.4806C45.0801 23.4013 44.2541 21.4072 42.7839 19.9369C41.3136 18.4666 39.3194 17.6406 37.2401 17.6406ZM25.4801 37.2406V25.4806H37.2401V37.2406H25.4801Z" fill="black"/>
<path d="M17.6401 72.5219C17.6401 74.6012 18.4661 76.5953 19.9364 78.0656C21.4067 79.5359 23.4008 80.3619 25.4801 80.3619H37.2401C39.3194 80.3619 41.3136 79.5359 42.7839 78.0656C44.2541 76.5953 45.0801 74.6012 45.0801 72.5219V60.7619C45.0801 58.6826 44.2541 56.6884 42.7839 55.2182C41.3136 53.7479 39.3194 52.9219 37.2401 52.9219H25.4801C23.4008 52.9219 21.4067 53.7479 19.9364 55.2182C18.4661 56.6884 17.6401 58.6826 17.6401 60.7619V72.5219ZM25.4801 60.7619H37.2401V72.5219H25.4801V60.7619Z" fill="black"/>
<path d="M72.5202 17.6406H60.7602C58.6809 17.6406 56.6867 18.4666 55.2165 19.9369C53.7462 21.4072 52.9202 23.4013 52.9202 25.4806V37.2406C52.9202 39.3199 53.7462 41.3141 55.2165 42.7843C56.6867 44.2546 58.6809 45.0806 60.7602 45.0806H72.5202C74.5995 45.0806 76.5936 44.2546 78.0639 42.7843C79.5342 41.3141 80.3602 39.3199 80.3602 37.2406V25.4806C80.3602 23.4013 79.5342 21.4072 78.0639 19.9369C76.5936 18.4666 74.5995 17.6406 72.5202 17.6406ZM60.7602 37.2406V25.4806H72.5202V37.2406H60.7602Z" fill="black"/>
<defs>
<radialGradient id="paint0_radial_443339_1700" cx="0" cy="0" r="1" gradientUnits="userSpaceOnUse" gradientTransform="translate(52.4654 50.8639) rotate(60.3802) scale(41.9354 241.436)">
<stop stop-color="#297EFF"/>
<stop offset="1" stop-color="#1C2FF7"/>
</radialGradient>
</defs>
</svg>
