<?xml version="1.0" encoding="utf-8"?>
<!-- Generator: Adobe Illustrator 26.2.1, SVG Export Plug-In . SVG Version: 6.00 Build 0)  -->
<svg version="1.1" id="Layer_1" xmlns="http://www.w3.org/2000/svg" xmlns:xlink="http://www.w3.org/1999/xlink" x="0px" y="0px"
	 width="32px" height="32px" viewBox="0 0 32 32" style="enable-background:new 0 0 32 32;" xml:space="preserve">
<style type="text/css">
	.st0{fill:#FFFFFF;}
</style>
<g>
	<path d="M6,0h20c3.3,0,6,2.7,6,6v20c0,3.3-2.7,6-6,6H6c-3.3,0-6-2.7-6-6V6C0,2.7,2.7,0,6,0z"/>
	<path class="st0" d="M7.8,9c1.7,0,3.4,0,5.2,0c3.7,0,7.5,0,11.2,0C24.4,9,24.7,9,25,9.1c-0.1,0.1-0.1,0.1-0.2,0.2
		c-2.8,2.8-5.5,5.5-8.3,8.3c-0.4,0.4-0.7,0.4-1.1,0c-2.8-2.8-5.5-5.6-8.3-8.3c0,0-0.1-0.1-0.1-0.1c0,0,0-0.1,0-0.1
		C7.3,9,7.5,9,7.8,9z M6,21.3c0-0.7,0-1.3,0-2c0-2.9,0-5.7,0-8.6c0-0.3,0.1-0.5,0.2-0.7c2,2,4,4,6,6c-2,2-4,4-6,6
		C6.1,21.8,6,21.6,6,21.3z M24.2,23c-1.5,0-3,0-4.5,0c-4,0-7.9,0-11.9,0c-0.3,0-0.5,0-0.8-0.2c2-2,4-4,6-6c0,0,0,0,0.1,0.1
		c0.5,0.5,1,1,1.5,1.5c0.8,0.8,1.9,0.8,2.7,0c0.5-0.5,1-1,1.6-1.6c0,0,0,0,0,0c0,0,0,0,0,0c0,0,0,0,0,0c2,2,4,4,6.1,6
		C24.7,23,24.5,23,24.2,23z M25.8,22c-2-2-4-4-6-6c2-2,4-4,6-6c0.1,0.2,0.2,0.4,0.2,0.7c0,0.7,0,1.3,0,2c0,2.9,0,5.7,0,8.6
		C26,21.5,25.9,21.8,25.8,22z"/>
</g>
</svg>
