<?xml version="1.0" encoding="utf-8"?>
<!-- Generator: Adobe Illustrator 26.2.1, SVG Export Plug-In . SVG Version: 6.00 Build 0)  -->
<svg version="1.1" id="Layer_1" xmlns="http://www.w3.org/2000/svg" xmlns:xlink="http://www.w3.org/1999/xlink" x="0px" y="0px"
	 width="23px" height="23px" viewBox="0 0 23 23" style="enable-background:new 0 0 23 23;" xml:space="preserve">
<style type="text/css">
	.st0{clip-path:url(#SVGID_00000005260122581748814490000015418822319368402307_);}
	.st1{fill-rule:evenodd;clip-rule:evenodd;fill:#1A60F6;}
</style>
<g>
	<defs>
		<rect id="SVGID_1_" x="0.4" y="0.4" width="22.2" height="22.2"/>
	</defs>
	<clipPath id="SVGID_00000013897323858116522660000007981032882276669317_">
		<use xlink:href="#SVGID_1_"  style="overflow:visible;"/>
	</clipPath>
	<g style="clip-path:url(#SVGID_00000013897323858116522660000007981032882276669317_);">
		<path class="st1" d="M0.4,11.5c0-6.1,5-11.1,11.1-11.1c6.1,0,11.1,5,11.1,11.1c0,6.1-5,11.1-11.1,11.1C5.4,22.6,0.4,17.6,0.4,11.5
			z M15.7,8.4C16.2,8.3,16.6,8.2,17,8c-0.3,0.5-0.7,0.9-1.2,1.2C16,12.5,13.6,16,9.4,16C8.2,16,7,15.6,6,15c1.2,0.1,2.4-0.2,3.3-0.8
			c-1,0-1.9-0.6-2.1-1.6c0.3,0.1,0.7,0,1-0.1c-1-0.3-1.8-1.2-1.8-2.3c0.3,0.1,0.7,0.3,1,0.3c-1-0.7-1.3-2-0.7-3.1
			c1.2,1.4,2.8,2.3,4.7,2.4C11,8.4,12.1,7,13.6,7c0.6,0,1.2,0.3,1.7,0.7c0.6-0.1,1-0.3,1.5-0.6C16.6,7.7,16.2,8.1,15.7,8.4L15.7,8.4
			z"/>
	</g>
</g>
</svg>
