<?xml version="1.0" encoding="utf-8"?>
<!-- Generator: Adobe Illustrator 26.2.1, SVG Export Plug-In . SVG Version: 6.00 Build 0)  -->
<svg version="1.1" id="Layer_1" xmlns="http://www.w3.org/2000/svg" xmlns:xlink="http://www.w3.org/1999/xlink" x="0px" y="0px"
	 width="23px" height="23px" viewBox="0 0 23 23" style="enable-background:new 0 0 23 23;" xml:space="preserve">
<style type="text/css">
	.st0{clip-path:url(#SVGID_00000050632697015131719240000014908781473533645702_);}
	.st1{fill:#2366F6;}
	.st2{fill-rule:evenodd;clip-rule:evenodd;fill:#2366F6;}
	.st3{fill-rule:evenodd;clip-rule:evenodd;fill:#1A60F6;}
</style>
<g>
	<defs>
		<rect id="SVGID_1_" x="0.4" y="0.4" width="22.2" height="22.2"/>
	</defs>
	<clipPath id="SVGID_00000139267459153160727730000004574250979094678431_">
		<use xlink:href="#SVGID_1_"  style="overflow:visible;"/>
	</clipPath>
	<g style="clip-path:url(#SVGID_00000139267459153160727730000004574250979094678431_);">
		<path class="st1" d="M11.5,13.4c-1.1,0-1.9-0.9-1.9-1.9c0,0,0,0,0,0c0-1,0.8-1.9,1.9-1.9c1,0,1.9,0.8,1.9,1.9
			C13.4,12.5,12.5,13.4,11.5,13.4z"/>
		<path class="st2" d="M13.9,6.8H9.1C8.6,6.9,8.3,6.9,8.1,7C7.8,7.1,7.6,7.2,7.4,7.4C7.2,7.6,7.2,7.7,7.1,7.9C7,8,7,8,7,8.1
			c0,0,0,0.1,0,0.1C6.8,8.5,6.8,8.8,6.8,9.1v4.7c0.1,0.6,0.1,0.8,0.2,1c0.1,0.3,0.2,0.5,0.4,0.7c0.2,0.2,0.3,0.2,0.5,0.3
			C8,15.9,8,16,8.1,16c0,0,0.1,0,0.1,0c0.2,0.1,0.5,0.2,0.9,0.2h4.7c0.6-0.1,0.8-0.1,1-0.2c0.3-0.1,0.5-0.2,0.7-0.4
			c0.2-0.2,0.2-0.3,0.3-0.5c0-0.1,0.1-0.1,0.1-0.2c0,0,0-0.1,0-0.1c0.1-0.2,0.2-0.5,0.2-0.9V9.1c-0.1-0.6-0.1-0.8-0.2-1
			c-0.1-0.3-0.2-0.5-0.4-0.7c-0.2-0.2-0.3-0.2-0.5-0.3C15,7,15,7,14.9,7c0,0-0.1,0-0.1,0C14.5,6.8,14.2,6.8,13.9,6.8z M11.5,8.5
			c-1.6,0-3,1.3-3,2.9c0,0,0,0,0,0c0,1.6,1.3,3,2.9,3c0,0,0,0,0,0c1.6,0,3-1.3,3-2.9c0,0,0,0,0,0C14.5,9.9,13.2,8.5,11.5,8.5
			C11.5,8.5,11.5,8.5,11.5,8.5z M15.2,8.4c0,0.4-0.3,0.7-0.7,0.7c-0.4,0-0.7-0.3-0.7-0.7c0,0,0,0,0,0c0-0.4,0.3-0.7,0.7-0.7
			C14.9,7.8,15.2,8.1,15.2,8.4z"/>
		<path class="st3" d="M0.4,11.5c0-6.1,5-11.1,11.1-11.1c6.1,0,11.1,5,11.1,11.1c0,6.1-5,11.1-11.1,11.1C5.4,22.6,0.4,17.6,0.4,11.5
			L0.4,11.5z M9.1,5.7h4.7c0.6,0.1,1,0.1,1.4,0.3c0.4,0.2,0.7,0.3,1,0.7c0.3,0.3,0.6,0.7,0.7,1c0.1,0.3,0.3,0.8,0.3,1.4v4.7
			c-0.1,0.6-0.1,1-0.3,1.4c-0.2,0.4-0.3,0.7-0.7,1c-0.3,0.3-0.6,0.5-1,0.7c-0.4,0.2-0.9,0.3-1.4,0.3H9.1c-0.6-0.1-1-0.1-1.4-0.3
			c-0.4-0.2-0.7-0.3-1-0.7c-0.3-0.3-0.5-0.6-0.7-1c-0.2-0.4-0.3-0.9-0.3-1.4V9.1c0.1-0.6,0.1-1,0.3-1.4c0.2-0.4,0.3-0.7,0.7-1
			C7,6.4,7.4,6.2,7.8,6C8.2,5.8,8.7,5.7,9.1,5.7z"/>
	</g>
</g>
</svg>
