<?xml version="1.0" encoding="utf-8"?>
<!-- Generator: Adobe Illustrator 26.2.1, SVG Export Plug-In . SVG Version: 6.00 Build 0)  -->
<svg version="1.1" id="Layer_1" xmlns="http://www.w3.org/2000/svg" xmlns:xlink="http://www.w3.org/1999/xlink" x="0px" y="0px"
	 width="72px" height="72px" viewBox="0 0 72 72" style="enable-background:new 0 0 72 72;" xml:space="preserve">
<style type="text/css">
	.st0{fill:url(#SVGID_1_);}
</style>
<g>
	<path d="M17.6,57.1h7.9v-18h5.8v18h7.9V44.3h5.8v12.9H53V37.4h5.8v21c0,2.6-2.1,4.6-4.6,4.6c0,0,0,0,0,0H16.4
		c-2.6,0-4.6-2.1-4.6-4.6c0,0,0,0,0,0V47.7h5.8V57.1L17.6,57.1z"/>
	
		<radialGradient id="SVGID_1_" cx="20.744" cy="50.9927" r="1" gradientTransform="matrix(46.348 83.6416 475.159 -263.2982 -25182.4121 11695.5303)" gradientUnits="userSpaceOnUse">
		<stop  offset="0" style="stop-color:#297EFF"/>
		<stop  offset="1" style="stop-color:#1C2FF7"/>
	</radialGradient>
	<path class="st0" d="M28.4,26.4L13.8,41l-4.1-4.1l15.2-15.2c1.9-1.9,5.1-2,7.1,0c0,0,0,0,0,0l6.8,6.8l13.6-13.6h-9.6V9h15
		c2.6,0,4.6,2.1,4.6,4.6c0,0,0,0,0,0v15h-5.8V19L42.3,33.2c-1.9,1.9-5.1,2-7.1,0c0,0,0,0,0,0L28.4,26.4L28.4,26.4z"/>
</g>
</svg>
