<?xml version="1.0" encoding="utf-8"?>
<!-- Generator: Adobe Illustrator 26.2.1, SVG Export Plug-In . SVG Version: 6.00 Build 0)  -->
<svg version="1.1" id="Layer_1" xmlns="http://www.w3.org/2000/svg" xmlns:xlink="http://www.w3.org/1999/xlink" x="0px" y="0px"
	 width="23px" height="23px" viewBox="0 0 23 23" style="enable-background:new 0 0 23 23;" xml:space="preserve">
<style type="text/css">
	.st0{clip-path:url(#SVGID_00000061435187957785938120000011181809114146851203_);}
	.st1{fill-rule:evenodd;clip-rule:evenodd;fill:#1A60F6;}
</style>
<g>
	<defs>
		<rect id="SVGID_1_" x="0.4" y="0.4" width="22.2" height="22.2"/>
	</defs>
	<clipPath id="SVGID_00000165234427653468447850000017738015471308481157_">
		<use xlink:href="#SVGID_1_"  style="overflow:visible;"/>
	</clipPath>
	<g style="clip-path:url(#SVGID_00000165234427653468447850000017738015471308481157_);">
		<path class="st1" d="M0.4,11.5c0-6.1,5-11.1,11.1-11.1c6.1,0,11.1,5,11.1,11.1c0,6.1-5,11.1-11.1,11.1C5.4,22.6,0.4,17.6,0.4,11.5
			L0.4,11.5z M6.1,9.6V17h2.4V9.6H6.1z M6,7.3C6,8,6.5,8.6,7.3,8.6C8,8.6,8.6,8,8.6,7.3C8.6,6.5,8,6,7.3,6C6.6,6,6,6.5,6,7.3L6,7.3z
			 M14.7,17h2.2v-4.6c0-2.3-1.4-3.1-2.7-3.1c-1.2,0-2,0.8-2.2,1.2v-1H9.8V17h2.4v-3.9c0-1,0.7-1.6,1.4-1.6c0.7,0,1.2,0.3,1.2,1.5V17
			L14.7,17z"/>
	</g>
</g>
</svg>
