<?xml version="1.0" encoding="utf-8"?>
<!-- Generator: Adobe Illustrator 26.2.1, SVG Export Plug-In . SVG Version: 6.00 Build 0)  -->
<svg version="1.1" id="Layer_1" xmlns="http://www.w3.org/2000/svg" xmlns:xlink="http://www.w3.org/1999/xlink" x="0px" y="0px"
	 width="72px" height="72px" viewBox="0 0 72 72" style="enable-background:new 0 0 72 72;" xml:space="preserve">
<style type="text/css">
	.st0{fill-rule:evenodd;clip-rule:evenodd;}
	.st1{fill-rule:evenodd;clip-rule:evenodd;fill:url(#SVGID_1_);}
</style>
<g>
	<path class="st0" d="M44.8,18.3c2.2,2.7,3.4,6,3.4,9.5v1h16v6h-4v11.1c-2-0.3-4.1-0.1-6,0.4V34.8h-10v26h0c0.1,2.1,0.8,4.2,1.8,6
		H2.2v-6h4v-26h-4v-6h16v-1c0-7.1,5-13.3,12-14.7V4.8h6v8.3C39.5,13.8,42.6,15.6,44.8,18.3z M26.8,21.4c-1.7,1.7-2.6,4-2.6,6.4v1h18
		v-1c0-5-4-9-9-9C30.8,18.8,28.5,19.7,26.8,21.4z M38.2,60.8v-26h-10v26H38.2z M22.2,34.8h-10v26h10V34.8z"/>
	
		<radialGradient id="SVGID_1_" cx="20.1354" cy="51.1004" r="1" gradientTransform="matrix(24.1082 0 0 -161.523 -437.9852 8312.9209)" gradientUnits="userSpaceOnUse">
		<stop  offset="0" style="stop-color:#297EFF"/>
		<stop  offset="1" style="stop-color:#1C2FF7"/>
	</radialGradient>
	<path class="st1" d="M48.4,59.4l3.5-3.5l4.2,4.2L66.3,50l3.5,3.5L56.2,67.2L48.4,59.4z"/>
</g>
</svg>
