<?xml version="1.0" encoding="utf-8"?>
<!-- Generator: Adobe Illustrator 26.2.1, SVG Export Plug-In . SVG Version: 6.00 Build 0)  -->
<svg version="1.1" id="Layer_1" xmlns="http://www.w3.org/2000/svg" xmlns:xlink="http://www.w3.org/1999/xlink" x="0px" y="0px"
	 width="23px" height="23px" viewBox="0 0 23 23" style="enable-background:new 0 0 23 23;" xml:space="preserve">
<style type="text/css">
	.st0{clip-path:url(#SVGID_00000163060824174835027900000009259845895983284402_);}
	.st1{fill-rule:evenodd;clip-rule:evenodd;fill:#1A60F6;}
</style>
<g>
	<defs>
		<rect id="SVGID_1_" x="0.4" y="0.4" width="22.2" height="22.2"/>
	</defs>
	<clipPath id="SVGID_00000100371721104184032330000013235119124906415787_">
		<use xlink:href="#SVGID_1_"  style="overflow:visible;"/>
	</clipPath>
	<g style="clip-path:url(#SVGID_00000100371721104184032330000013235119124906415787_);">
		<path class="st1" d="M0.4,11.5c0-6.1,5-11.1,11.1-11.1c6.1,0,11.1,5,11.1,11.1c0,6.1-5,11.1-11.1,11.1S0.4,17.6,0.4,11.5z M11.5,6
			c3.1,0,5.5,2.5,5.5,5.5c0,2.8-2,5.1-4.8,5.5v-3.9h1.3l0.3-1.6h-1.5v-1c0-0.4,0.2-0.8,0.9-0.8h0.7V8.2c0,0-0.6-0.1-1.2-0.1
			c-1.2,0-2.1,0.8-2.1,2.1v1.2H9.2v1.6h1.4V17C8,16.6,6,14.3,6,11.5C6,8.4,8.5,6,11.5,6L11.5,6z"/>
	</g>
</g>
</svg>
