<?xml version="1.0" encoding="utf-8"?>
<!-- Generator: Adobe Illustrator 26.2.1, SVG Export Plug-In . SVG Version: 6.00 Build 0)  -->
<svg version="1.1" id="Layer_1" xmlns="http://www.w3.org/2000/svg" xmlns:xlink="http://www.w3.org/1999/xlink" x="0px" y="0px"
	 width="32px" height="32px" viewBox="0 0 32 32" style="enable-background:new 0 0 32 32;" xml:space="preserve">
<style type="text/css">
	.st0{fill:#FFFFFF;}
</style>
<g>
	<path d="M6,0h20c3.3,0,6,2.7,6,6v20c0,3.3-2.7,6-6,6H6c-3.3,0-6-2.7-6-6V6C0,2.7,2.7,0,6,0z"/>
	<path class="st0" d="M24.5,14.2c0-4.6-3.8-8.2-8.2-8.2C11.7,6,8,9.7,8,14.2c0,0,0,0,0,0v0.3c0,0,0.1,1.2,0.3,1.8c1,4,4.2,7.1,8,9.9
		c3.7-2.9,7-5.9,8-9.9c0.1-0.5,0.3-1.7,0.3-1.8V14.2z M16.2,17.7c-1.9,0-3.4-1.5-3.4-3.4c0-1.9,1.5-3.4,3.4-3.4
		c1.9,0,3.4,1.5,3.4,3.4C19.7,16.1,18.1,17.7,16.2,17.7z"/>
</g>
</svg>
