<?xml version="1.0" encoding="utf-8"?>
<!-- Generator: Adobe Illustrator 26.2.1, SVG Export Plug-In . SVG Version: 6.00 Build 0)  -->
<svg version="1.1" id="Layer_1" xmlns="http://www.w3.org/2000/svg" xmlns:xlink="http://www.w3.org/1999/xlink" x="0px" y="0px"
	 width="112px" height="112px" viewBox="0 0 112 112" style="enable-background:new 0 0 112 112;" xml:space="preserve">
<style type="text/css">
	.st0{fill:url(#SVGID_1_);}
	.st1{fill:url(#SVGID_00000098937399600055925970000000404698092990971819_);}
</style>
<g>
	
		<linearGradient id="SVGID_1_" gradientUnits="userSpaceOnUse" x1="11.2283" y1="104.3565" x2="115.3663" y2="-3.4678" gradientTransform="matrix(1 0 0 -1 0 114)">
		<stop  offset="0" style="stop-color:#DDEFFF"/>
		<stop  offset="0.461" style="stop-color:#F1F7FF"/>
		<stop  offset="1" style="stop-color:#C2D8FE"/>
	</linearGradient>
	<path class="st0" d="M15,0h82c8.3,0,15,6.7,15,15v82c0,8.3-6.7,15-15,15H15c-8.3,0-15-6.7-15-15V15C0,6.7,6.7,0,15,0z"/>
	<g>
		
			<radialGradient id="SVGID_00000042011814013250329620000016239577230270440095_" cx="-614.9014" cy="442.2423" r="1" gradientTransform="matrix(26.4362 46.5002 267.7148 -152.2007 -102082.7812 95924.9688)" gradientUnits="userSpaceOnUse">
			<stop  offset="0" style="stop-color:#297EFF"/>
			<stop  offset="1" style="stop-color:#1C2FF7"/>
		</radialGradient>
		<path style="fill:url(#SVGID_00000042011814013250329620000016239577230270440095_);" d="M60,25h-3v30h30v-3
			C87,37.1,74.9,25,60,25z M63,49V31.2c9.2,1.3,16.5,8.6,17.8,17.8H63z"/>
		<path d="M52,87c14.5,0,26.5-11.5,27-26h-6c-0.5,11.6-10.4,20.5-22,20s-20.5-10.4-20-22c0.5-10.8,9.1-19.5,20-20v-6
			c-14.9,0.3-26.8,12.6-26.5,27.5S37.1,87.3,52,87L52,87z"/>
	</g>
</g>
</svg>
