<?xml version="1.0" encoding="utf-8"?>
<!-- Generator: Adobe Illustrator 26.2.1, SVG Export Plug-In . SVG Version: 6.00 Build 0)  -->
<svg version="1.1" id="Layer_1" xmlns="http://www.w3.org/2000/svg" xmlns:xlink="http://www.w3.org/1999/xlink" x="0px" y="0px"
	 width="112px" height="112px" viewBox="0 0 112 112" style="enable-background:new 0 0 112 112;" xml:space="preserve">
<style type="text/css">
	.st0{fill:url(#SVGID_1_);}
	.st1{fill:url(#SVGID_00000002346134829726712290000011538901303916193465_);}
	.st2{fill:url(#SVGID_00000023281068769298857160000004811256056600864399_);}
</style>
<g>
	
		<linearGradient id="SVGID_1_" gradientUnits="userSpaceOnUse" x1="11.2283" y1="104.3565" x2="115.3663" y2="-3.4678" gradientTransform="matrix(1 0 0 -1 0 114)">
		<stop  offset="0" style="stop-color:#DDEFFF"/>
		<stop  offset="0.461" style="stop-color:#F1F7FF"/>
		<stop  offset="1" style="stop-color:#C2D8FE"/>
	</linearGradient>
	<path class="st0" d="M15,0h82c8.3,0,15,6.7,15,15v82c0,8.3-6.7,15-15,15H15c-8.3,0-15-6.7-15-15V15C0,6.7,6.7,0,15,0z"/>
	<g>
		<path d="M74.5,25C68.1,25,63,30.1,63,36.5C63,42.8,68.1,48,74.5,48S86,42.8,86,36.5C86,30.1,80.8,25,74.5,25z M74.5,42
			c-3,0-5.5-2.5-5.5-5.5s2.5-5.5,5.5-5.5s5.5,2.5,5.5,5.5S77.5,42,74.5,42z"/>
		
			<radialGradient id="SVGID_00000096781916854403246490000007182493724752615822_" cx="-616.5672" cy="442.2085" r="1" gradientTransform="matrix(28.1965 54.4361 297.9034 -154.3063 -114297.0156 101849)" gradientUnits="userSpaceOnUse">
			<stop  offset="0" style="stop-color:#297EFF"/>
			<stop  offset="1" style="stop-color:#1C2FF7"/>
		</radialGradient>
		<path style="fill:url(#SVGID_00000096781916854403246490000007182493724752615822_);" d="M80,67c0,2.8-2.2,5-5,5H64.2l5.9-5.9
			l-4.2-4.2l-11,11c-1.2,1.2-1.2,3.1,0,4.2l11,11l4.2-4.2L64.2,78H75c6.1,0,11-4.9,11-11V53h-6V67z"/>
		<path d="M37.5,64C31.1,64,26,69.1,26,75.5S31.1,87,37.5,87S49,81.8,49,75.5l0,0C49,69.1,43.8,64,37.5,64z M37.5,81
			c-3,0-5.5-2.5-5.5-5.5s2.5-5.5,5.5-5.5s5.5,2.5,5.5,5.5S40.5,81,37.5,81z"/>
		
			<radialGradient id="SVGID_00000108294421223008351450000009196243602401154992_" cx="-615.9613" cy="442.1824" r="1" gradientTransform="matrix(28.1813 51.3358 290.1759 -159.2948 -110926.7031 102079.2266)" gradientUnits="userSpaceOnUse">
			<stop  offset="0" style="stop-color:#297EFF"/>
			<stop  offset="1" style="stop-color:#1C2FF7"/>
		</radialGradient>
		<path style="fill:url(#SVGID_00000108294421223008351450000009196243602401154992_);" d="M26,57h6V45c0-2.8,2.2-5,5-5h10.2
			L42,44.8l4,4.4l11-10c1.2-1.1,1.3-3,0.2-4.2c0,0-0.1-0.1-0.1-0.1l-11-11l-4.2,4.2l5.9,5.9H37c-6.1,0-11,4.9-11,11V57z"/>
	</g>
</g>
</svg>
