<?xml version="1.0" encoding="utf-8"?>
<!-- Generator: Adobe Illustrator 26.2.1, SVG Export Plug-In . SVG Version: 6.00 Build 0)  -->
<svg version="1.1" id="Layer_1" xmlns="http://www.w3.org/2000/svg" xmlns:xlink="http://www.w3.org/1999/xlink" x="0px" y="0px"
	 width="244px" height="134px" viewBox="0 0 244 134" style="enable-background:new 0 0 244 134;" xml:space="preserve">
<style type="text/css">
	.st0{fill:url(#SVGID_1_);}
	.st1{fill-rule:evenodd;clip-rule:evenodd;}
	.st2{fill:url(#SVGID_00000114049981867151154610000013215651453412824751_);}
</style>
<linearGradient id="SVGID_1_" gradientUnits="userSpaceOnUse" x1="69.2596" y1="665.1395" x2="172.0069" y2="875.0555" gradientTransform="matrix(1 0 0 1 0 -705.8898)">
	<stop  offset="0" style="stop-color:#DDEFFF"/>
	<stop  offset="0.408" style="stop-color:#F2F8FF"/>
	<stop  offset="0.646" style="stop-color:#F9FBFF"/>
	<stop  offset="1" style="stop-color:#C2D8FE"/>
</linearGradient>
<path class="st0" d="M16,0h212c8.8,0,16,7.2,16,16v102c0,8.8-7.2,16-16,16H16c-8.8,0-16-7.2-16-16V16C0,7.2,7.2,0,16,0z"/>
<g>
	<path class="st1" d="M144.3,98.5h-18.5v-7h18.5c1.4,0,2.5-1.1,2.5-2.5l0,0V53.5l-11-11h-28.5c-1.4,0-2.5,1.1-2.5,2.5l0,0v18h-7V45
		c0-5.2,4.3-9.5,9.5-9.5h28.3c2,0,3.9,0.8,5.3,2.2l10.7,10.7l0,0c1.4,1.4,2.2,3.3,2.2,5.3V89C153.8,94.2,149.5,98.5,144.3,98.5z"/>
	
		<radialGradient id="SVGID_00000130627251088095860520000009129650580218420405_" cx="-132.0482" cy="422.8257" r="1" gradientTransform="matrix(24.6749 43.4013 -249.8741 142.0607 109001.1562 -54268.2891)" gradientUnits="userSpaceOnUse">
		<stop  offset="0" style="stop-color:#297EFF"/>
		<stop  offset="1" style="stop-color:#1C2FF7"/>
	</radialGradient>
	<path style="fill:url(#SVGID_00000130627251088095860520000009129650580218420405_);" d="M96.9,70.1c-1.8-0.3-3.7,0.3-5,1.6
		c-1.3,1.3-1.9,3.2-1.6,5c0.2,1.2,0.8,2.3,1.7,3.1l15.9,15.9c1.5,1.5,3.5,2.3,5.6,2.3h2.7c1.1,0,2-0.9,2-2l0,0v-2.7
		c0-2.1-0.8-4.2-2.3-5.7L100,71.8C99.2,70.9,98.1,70.3,96.9,70.1L96.9,70.1z"/>
	<path d="M111.3,56h27v7h-27C111.3,63,111.3,56,111.3,56z M111.3,69h27v7h-27C111.3,76,111.3,69,111.3,69z"/>
</g>
</svg>
