<?xml version="1.0" encoding="utf-8"?>
<!-- Generator: Adobe Illustrator 26.2.1, SVG Export Plug-In . SVG Version: 6.00 Build 0)  -->
<svg version="1.1" id="Layer_1" xmlns="http://www.w3.org/2000/svg" xmlns:xlink="http://www.w3.org/1999/xlink" x="0px" y="0px"
	 width="70px" height="70px" viewBox="0 0 70 70" style="enable-background:new 0 0 70 70;" xml:space="preserve">
<style type="text/css">
	.st0{fill:url(#SVGID_1_);}
	.st1{fill-rule:evenodd;clip-rule:evenodd;}
	.st2{fill-rule:evenodd;clip-rule:evenodd;fill:url(#SVGID_00000147218269314933664960000001938188552870295949_);}
</style>
<g>
	
		<linearGradient id="SVGID_1_" gradientUnits="userSpaceOnUse" x1="76.6567" y1="-9.6048" x2="3.2654" y2="68.7858" gradientTransform="matrix(1 0 0 -1 0 69.8898)">
		<stop  offset="0" style="stop-color:#C2D8FE"/>
		<stop  offset="0.539" style="stop-color:#F1F7FF"/>
		<stop  offset="1" style="stop-color:#DDEFFF"/>
	</linearGradient>
	<path class="st0" d="M7.6,0h54.7C66.6,0,70,3.4,70,7.6v54.7c0,4.2-3.4,7.6-7.6,7.6H7.6C3.4,70,0,66.6,0,62.4V7.6C0,3.4,3.4,0,7.6,0
		z"/>
	<g>
		<g>
			<path class="st1" d="M47.8,18.7c-5,0-9,4-9,9v2.4c-0.7-0.1-1.4-0.2-2.2-0.2c-7.5,0-13.5,6-13.5,13.5c0,4.3,2.1,8.3,5.5,10.8
				l0.6,0.4h14.9l0.6-0.4c1.5-1.1,2.8-2.5,3.7-4.1c3.7-6.5,1.4-14.7-5-18.4v-4.1c0-2.5,2-4.5,4.5-4.5s4.5,2,4.5,4.5v6.8h4.5v-6.8
				C56.9,22.6,52.8,18.7,47.8,18.7z M45.6,43.3c0,2.6-1.1,5.1-3.1,6.8H30.7c-1.9-1.7-3-4.2-3.1-6.8c0-5,4-9,9-9S45.6,38.3,45.6,43.3
				z"/>
			<path class="st1" d="M36.3,41.7c-1.2,0-2.2,1-2.2,2.2c0,1.2,1,2.2,2.2,2.2s2.2-1,2.2-2.2C38.5,42.6,37.5,41.7,36.3,41.7z"/>
		</g>
		
			<radialGradient id="SVGID_00000144312127990088784660000014566508130357713551_" cx="-498.2099" cy="5.5377" r="1.239" gradientTransform="matrix(20.2881 0.3485 -2.3335 135.849 10132.7393 -554.4562)" gradientUnits="userSpaceOnUse">
			<stop  offset="0" style="stop-color:#297EFF"/>
			<stop  offset="1" style="stop-color:#1C2FF7"/>
		</radialGradient>
		<path style="fill-rule:evenodd;clip-rule:evenodd;fill:url(#SVGID_00000144312127990088784660000014566508130357713551_);" d="
			M13.1,24.7l3.5-3.5l4.7,4.7l10.5-10.5l3.5,3.5l-14,14L13.1,24.7L13.1,24.7z"/>
	</g>
</g>
</svg>
