<?xml version="1.0" encoding="utf-8"?>
<!-- Generator: Adobe Illustrator 26.2.1, SVG Export Plug-In . SVG Version: 6.00 Build 0)  -->
<svg version="1.1" id="Layer_1" xmlns="http://www.w3.org/2000/svg" xmlns:xlink="http://www.w3.org/1999/xlink" x="0px" y="0px"
	 width="70px" height="70px" viewBox="0 0 70 70" style="enable-background:new 0 0 70 70;" xml:space="preserve">
<style type="text/css">
	.st0{fill:url(#SVGID_1_);}
	.st1{fill:url(#SVGID_00000183241632271645617270000010419389665599272354_);}
</style>
<g>
	<g>
		
			<linearGradient id="SVGID_1_" gradientUnits="userSpaceOnUse" x1="76.6567" y1="-9.6048" x2="3.2654" y2="68.7858" gradientTransform="matrix(1 0 0 -1 0 69.8898)">
			<stop  offset="0" style="stop-color:#C2D8FE"/>
			<stop  offset="0.539" style="stop-color:#F1F7FF"/>
			<stop  offset="1" style="stop-color:#DDEFFF"/>
		</linearGradient>
		<path class="st0" d="M7.6,0h54.7C66.6,0,70,3.4,70,7.6v54.7c0,4.2-3.4,7.6-7.6,7.6H7.6C3.4,70,0,66.6,0,62.4V7.6
			C0,3.4,3.4,0,7.6,0z"/>
	</g>
	<g>
		
			<radialGradient id="SVGID_00000036210105670043605320000007792442704884672397_" cx="-498.7971" cy="1.1469" r="1" gradientTransform="matrix(27 23.5 -135.9963 156.2513 13657.5137 11560.5127)" gradientUnits="userSpaceOnUse">
			<stop  offset="0" style="stop-color:#297EFF"/>
			<stop  offset="1" style="stop-color:#1C2FF7"/>
		</radialGradient>
		<path style="fill:url(#SVGID_00000036210105670043605320000007792442704884672397_);" d="M35.4,19.2v-4.3
			c10.8,0.2,19.5,8.9,19.7,19.7h-4.3C50.6,26.2,43.8,19.4,35.4,19.2z"/>
		<g>
			<path d="M19.2,35c0-1.2-0.9-2.1-2.1-2.1c-1.2,0-2.2,0.9-2.2,2.1v0.1c0,1.2,1,2.1,2.2,2.1C18.3,37.2,19.2,36.2,19.2,35z"/>
			<path d="M20.7,24.1c-1-0.6-2.4-0.3-3,0.8c-0.6,1.1-0.3,2.4,0.8,3c1.1,0.6,2.4,0.3,3-0.8C22.1,26,21.7,24.7,20.7,24.1z"/>
			<path d="M25.1,17.8c-1.1,0.5-1.5,1.9-0.9,2.9c0,0.1,0,0.1,0,0.1c0.6,1,2,1.3,3,0.7s1.3-2,0.7-3C27.3,17.5,26,17.2,25.1,17.8z"/>
			<path d="M51.5,42.1c-1.1-0.6-2.4-0.3-3,0.8c-0.6,1.1-0.2,2.4,0.8,3c1.1,0.6,2.4,0.3,3-0.8C52.9,44,52.5,42.7,51.5,42.1z"/>
			<path d="M43,48.6c-1.1,0.5-1.5,1.9-0.9,2.9c0,0.1,0,0.1,0,0.1c0.6,1,2,1.3,3,0.7c1-0.6,1.3-2,0.7-3C45.2,48.3,44,47.9,43,48.6z"
				/>
			<path d="M35.1,50.8c-1.2,0-2.2,0.9-2.2,2.1V53c0,1.2,1,2.1,2.2,2.1c1.2,0,2.1-1,2.1-2.2C37.1,51.8,36.2,50.8,35.1,50.8z"/>
			<path d="M27.1,48.5c-1-0.6-2.3-0.3-2.9,0.7c-0.6,1.1-0.2,2.4,0.8,3c1,0.6,2.3,0.2,2.9-0.8C28.5,50.4,28.1,49.1,27.1,48.5z"/>
			<path d="M18.5,42.1c-1,0.6-1.4,2-0.8,3c0.6,1,2,1.4,3,0.8c1-0.6,1.4-2,0.8-3C20.9,41.8,19.6,41.5,18.5,42.1z"/>
			<path d="M42.3,38.4v-4.3h-6.4l-0.1-7.8h-4.3v9.9c0,1.2,1,2.2,2.2,2.2H42.3z"/>
		</g>
	</g>
</g>
</svg>
