<?xml version="1.0" encoding="utf-8"?>
<!-- Generator: Adobe Illustrator 26.2.1, SVG Export Plug-In . SVG Version: 6.00 Build 0)  -->
<svg version="1.1" id="Layer_1" xmlns="http://www.w3.org/2000/svg" xmlns:xlink="http://www.w3.org/1999/xlink" x="0px" y="0px"
	 width="70px" height="70px" viewBox="0 0 70 70" style="enable-background:new 0 0 70 70;" xml:space="preserve">
<style type="text/css">
	.st0{fill:url(#SVGID_1_);}
	.st1{fill-rule:evenodd;clip-rule:evenodd;fill:url(#SVGID_00000175306662982107876230000014244380307839893940_);}
</style>
<g>
	
		<linearGradient id="SVGID_1_" gradientUnits="userSpaceOnUse" x1="76.6567" y1="-9.6048" x2="3.2654" y2="68.7858" gradientTransform="matrix(1 0 0 -1 0 69.8898)">
		<stop  offset="0" style="stop-color:#C2D8FE"/>
		<stop  offset="0.539" style="stop-color:#F1F7FF"/>
		<stop  offset="1" style="stop-color:#DDEFFF"/>
	</linearGradient>
	<path class="st0" d="M7.6,0h54.7C66.6,0,70,3.4,70,7.6v54.7c0,4.2-3.4,7.6-7.6,7.6H7.6C3.4,70,0,66.6,0,62.4V7.6C0,3.4,3.4,0,7.6,0
		z"/>
	<g>
		<path d="M51.1,22.1l-15.3-6.5c-0.5-0.2-1.2-0.2-1.7,0l-15.3,6.5c-0.8,0.3-1.3,1.1-1.3,2v12.7c0,5.1,2.7,9.7,7.1,12.2l9.3,5.3
			c0.3,0.2,0.7,0.3,1.1,0.3s0.8-0.1,1-0.2l9.3-5.3c4.4-2.5,7.1-7.2,7.1-12.2V24.1C52.4,23.2,51.9,22.4,51.1,22.1z M48.1,36.8
			c0,3.5-1.9,6.7-4.9,8.4L35,49.9l-8.2-4.7c-3-1.7-4.9-4.9-4.9-8.4V25.5L35,19.9l13.1,5.6V36.8z"/>
		
			<radialGradient id="SVGID_00000124846595702105655380000017431315788926917311_" cx="-497.5262" cy="5.6149" r="1" gradientTransform="matrix(20.2881 0.3485 -2.3335 135.849 10132.7393 -554.4562)" gradientUnits="userSpaceOnUse">
			<stop  offset="0" style="stop-color:#297EFF"/>
			<stop  offset="1" style="stop-color:#1C2FF7"/>
		</radialGradient>
		<path style="fill-rule:evenodd;clip-rule:evenodd;fill:url(#SVGID_00000124846595702105655380000017431315788926917311_);" d="
			M26.6,35.3l2.8-2.8l3.8,3.8l8.5-8.5l2.8,2.8L33.2,42L26.6,35.3L26.6,35.3z"/>
	</g>
</g>
</svg>
