<?xml version="1.0" encoding="utf-8"?>
<!-- Generator: Adobe Illustrator 26.2.1, SVG Export Plug-In . SVG Version: 6.00 Build 0)  -->
<svg version="1.1" id="Layer_1" xmlns="http://www.w3.org/2000/svg" xmlns:xlink="http://www.w3.org/1999/xlink" x="0px" y="0px"
	 width="369px" height="375px" viewBox="0 0 369 375" style="enable-background:new 0 0 369 375;" xml:space="preserve">
<style type="text/css">
	.st0{opacity:0.1;}
	.st1{fill:url(#SVGID_1_);}
	.st2{fill:url(#SVGID_00000002347988845778376830000002314968074311545759_);}
	.st3{fill:url(#SVGID_00000137826319786521370530000011842763951995945871_);}
	.st4{fill:url(#SVGID_00000165943003309156387490000000860288897384712844_);}
</style>
<g class="st0">
	
		<radialGradient id="SVGID_1_" cx="169.796" cy="203.2076" r="1" gradientTransform="matrix(833.449 0 0 -833.198 -140721.2188 169696.5312)" gradientUnits="userSpaceOnUse">
		<stop  offset="0" style="stop-color:#67E2FF"/>
		<stop  offset="1" style="stop-color:#0E24C4"/>
	</radialGradient>
	<path class="st1" d="M216.2,250.5c-0.2,0-0.4-0.1-0.6-0.2L0.6,126.3C0.1,126-0.1,125.5,0,125c0.1-0.5,0.6-0.8,1.1-0.8h430.1
		c0.5,0,1,0.3,1.1,0.8c0.1,0.5-0.1,1-0.5,1.3L216.8,250.4C216.6,250.5,216.4,250.5,216.2,250.5z M5.4,126.4l210.8,121.7L427,126.4
		C427,126.4,5.4,126.4,5.4,126.4z"/>
	
		<radialGradient id="SVGID_00000176012129370163021550000002913030212167402906_" cx="169.796" cy="203.2076" r="1" gradientTransform="matrix(833.449 0 0 -833.198 -140721.2188 169696.5312)" gradientUnits="userSpaceOnUse">
		<stop  offset="0" style="stop-color:#67E2FF"/>
		<stop  offset="1" style="stop-color:#0E24C4"/>
	</radialGradient>
	<path style="fill:url(#SVGID_00000176012129370163021550000002913030212167402906_);" d="M646.3,250.5H216.2c-0.5,0-1-0.3-1.1-0.8
		c-0.1-0.2,0-0.5,0.1-0.7c0.1-0.2,0.3-0.4,0.5-0.6l215.1-124.1c0.4-0.2,0.8-0.2,1.1,0l215,124.1c0.4,0.3,0.7,0.8,0.5,1.3
		C647.3,250.2,646.8,250.5,646.3,250.5L646.3,250.5z M220.5,248.3H642L431.3,126.6L220.5,248.3L220.5,248.3z"/>
	
		<radialGradient id="SVGID_00000109003370266253394020000008352387320802631354_" cx="169.796" cy="203.2076" r="1" gradientTransform="matrix(833.449 0 0 -833.198 -140721.2188 169696.5312)" gradientUnits="userSpaceOnUse">
		<stop  offset="0" style="stop-color:#67E2FF"/>
		<stop  offset="1" style="stop-color:#0E24C4"/>
	</radialGradient>
	<path style="fill:url(#SVGID_00000109003370266253394020000008352387320802631354_);" d="M431.3,374.7c-0.2,0-0.4-0.1-0.6-0.2
		L215.6,250.4c-0.4-0.3-0.7-0.8-0.5-1.3c0.1-0.5,0.6-0.9,1.1-0.9h430.1c0.6,0,1.1,0.5,1.1,1.1c0,0.4-0.2,0.8-0.6,1L431.8,374.5
		C431.7,374.6,431.5,374.7,431.3,374.7L431.3,374.7z M220.5,250.5l210.8,121.7l210.8-121.7L220.5,250.5L220.5,250.5z"/>
	
		<radialGradient id="SVGID_00000129903622279066834570000007755216658619966645_" cx="169.796" cy="203.2076" r="1" gradientTransform="matrix(833.449 0 0 -833.198 -140721.2188 169696.5312)" gradientUnits="userSpaceOnUse">
		<stop  offset="0" style="stop-color:#67E2FF"/>
		<stop  offset="1" style="stop-color:#0E24C4"/>
	</radialGradient>
	<path style="fill:url(#SVGID_00000129903622279066834570000007755216658619966645_);" d="M431.3,126.4H1.1c-0.5,0-1-0.3-1.1-0.8
		c-0.1-0.5,0.1-1,0.5-1.3L215.6,0.2c0.4-0.2,0.8-0.2,1.1,0l215.1,124.1c0.5,0.3,0.7,0.8,0.5,1.3
		C432.2,126.1,431.8,126.4,431.3,126.4L431.3,126.4z M5.4,124.1H427L216.2,2.4C216.2,2.4,5.4,124.1,5.4,124.1z"/>
</g>
</svg>
