<svg width="370" height="338" viewBox="0 0 370 338" fill="none" xmlns="http://www.w3.org/2000/svg">
    <g opacity=".24" fill="#2999EE">
        <path d="M76.2 124.122a1.09 1.09 0 0 0-.574.153l-215.053 124.118a1.15 1.15 0 0 0-.535 1.291 1.148 1.148 0 0 0 1.108.847h430.107a1.14 1.14 0 0 0 1.107-.847 1.137 1.137 0 0 0-.534-1.291L76.772 124.275a1.09 1.09 0 0 0-.573-.153zM-134.578 248.24 76.199 126.589 287.021 248.24h-421.598z"/>
        <path d="M506.306 124.12H76.199a1.15 1.15 0 0 0-1.108.848 1.153 1.153 0 0 0 .535 1.283l215.076 124.133a1.133 1.133 0 0 0 1.146 0l215.023-124.125a1.144 1.144 0 0 0-.565-2.139zm-425.83 2.291h421.56l-210.784 121.66-210.776-121.66z"/>
        <path d="M291.252.005a1.117 1.117 0 0 0-.573.153L75.626 124.284a1.148 1.148 0 0 0-.126 1.897c.2.155.446.239.699.241h430.107c.252.001.498-.081.699-.234.2-.154.344-.37.408-.614a1.142 1.142 0 0 0-.534-1.283L291.825.158a1.09 1.09 0 0 0-.573-.153zM80.476 124.131 291.252 2.471l210.822 121.652-421.598.008zM291.253 248.245h-430.107a1.156 1.156 0 0 0-1.108.848 1.151 1.151 0 0 0 .535 1.29L75.626 374.509a1.132 1.132 0 0 0 1.146 0l215.054-124.126a1.134 1.134 0 0 0 .534-1.29 1.143 1.143 0 0 0-1.107-.848zm-425.83 2.291h421.56L76.199 372.219l-210.776-121.683z"/>
    </g>
</svg>
