<?xml version="1.0" encoding="utf-8"?>
<!-- Generator: Adobe Illustrator 26.2.1, SVG Export Plug-In . SVG Version: 6.00 Build 0)  -->
<svg version="1.1" id="Layer_1" xmlns="http://www.w3.org/2000/svg" xmlns:xlink="http://www.w3.org/1999/xlink" x="0px" y="0px"
	 width="648px" height="375px" viewBox="0 0 648 375" style="enable-background:new 0 0 648 375;" xml:space="preserve">
<style type="text/css">
	.st0{opacity:0.1;}
	.st1{fill:url(#SVGID_1_);}
	.st2{fill:url(#SVGID_00000041288047801239744400000009073499976441129654_);}
	.st3{fill:url(#SVGID_00000165941388965214348450000011238423758839598231_);}
	.st4{fill:url(#SVGID_00000021833470441080179400000000360958692795361429_);}
</style>
<g class="st0">
	
		<radialGradient id="SVGID_1_" cx="617.2585" cy="-0.4152" r="1" gradientTransform="matrix(833.449 0 0 833.198 -513658.3438 336.322)" gradientUnits="userSpaceOnUse">
		<stop  offset="0" style="stop-color:#67E2FF"/>
		<stop  offset="1" style="stop-color:#0E24C4"/>
	</radialGradient>
	<path class="st1" d="M216.2,124.1c-0.2,0-0.4,0.1-0.6,0.2L0.6,248.4c-0.4,0.3-0.7,0.8-0.5,1.3c0.1,0.5,0.6,0.8,1.1,0.8h430.1
		c0.5,0,1-0.3,1.1-0.8s-0.1-1-0.5-1.3L216.8,124.3C216.6,124.2,216.4,124.1,216.2,124.1z M5.4,248.2l210.8-121.7L427,248.2H5.4z"/>
	
		<radialGradient id="SVGID_00000017497845963555950550000006492804827225588873_" cx="617.2585" cy="-0.4152" r="1" gradientTransform="matrix(833.449 0 0 833.198 -513658.3438 336.322)" gradientUnits="userSpaceOnUse">
		<stop  offset="0" style="stop-color:#67E2FF"/>
		<stop  offset="1" style="stop-color:#0E24C4"/>
	</radialGradient>
	<path style="fill:url(#SVGID_00000017497845963555950550000006492804827225588873_);" d="M646.3,124.1H216.2c-0.5,0-1,0.3-1.1,0.8
		s0.1,1,0.5,1.3l215.1,124.1c0.4,0.2,0.8,0.2,1.1,0l215-124.1c0.5-0.3,0.7-1,0.4-1.6C647.1,124.3,646.7,124.1,646.3,124.1z
		 M220.5,126.4H642L431.3,248.1L220.5,126.4L220.5,126.4z"/>
	
		<radialGradient id="SVGID_00000123436704812061210830000003178816565411817633_" cx="617.2585" cy="-0.4152" r="1" gradientTransform="matrix(833.449 0 0 833.198 -513658.3438 336.3376)" gradientUnits="userSpaceOnUse">
		<stop  offset="0" style="stop-color:#67E2FF"/>
		<stop  offset="1" style="stop-color:#0E24C4"/>
	</radialGradient>
	<path style="fill:url(#SVGID_00000123436704812061210830000003178816565411817633_);" d="M431.3,0c-0.2,0-0.4,0.1-0.6,0.2
		L215.6,124.3c-0.4,0.3-0.7,0.8-0.5,1.3c0.1,0.5,0.6,0.9,1.1,0.9h430.1c0.3,0,0.5-0.1,0.7-0.2c0.2-0.2,0.3-0.4,0.4-0.6
		c0.1-0.5-0.1-1-0.5-1.3L431.8,0.2C431.7,0.1,431.5,0,431.3,0z M220.5,124.1L431.3,2.5l210.8,121.7L220.5,124.1L220.5,124.1z"/>
	
		<radialGradient id="SVGID_00000086686865290093029170000004745953460680538267_" cx="617.2585" cy="-0.4152" r="1" gradientTransform="matrix(833.449 0 0 833.198 -513658.3438 336.322)" gradientUnits="userSpaceOnUse">
		<stop  offset="0" style="stop-color:#67E2FF"/>
		<stop  offset="1" style="stop-color:#0E24C4"/>
	</radialGradient>
	<path style="fill:url(#SVGID_00000086686865290093029170000004745953460680538267_);" d="M431.3,248.2H1.1c-0.5,0-1,0.3-1.1,0.8
		s0.1,1,0.5,1.3l215.1,124.1c0.4,0.2,0.8,0.2,1.1,0l215.1-124.1c0.5-0.3,0.7-0.8,0.5-1.3C432.2,248.6,431.8,248.2,431.3,248.2z
		 M5.4,250.5H427L216.2,372.2L5.4,250.5z"/>
</g>
</svg>
