<?xml version="1.0" encoding="utf-8"?>
<!-- Generator: Adobe Illustrator 26.2.1, SVG Export Plug-In . SVG Version: 6.00 Build 0)  -->
<svg version="1.1" id="Layer_1" xmlns="http://www.w3.org/2000/svg" xmlns:xlink="http://www.w3.org/1999/xlink" x="0px" y="0px"
	 width="561px" height="375px" viewBox="0 0 561 375" style="enable-background:new 0 0 561 375;" xml:space="preserve">
<style type="text/css">
	.st0{opacity:0.1;}
	.st1{fill:url(#SVGID_1_);}
	.st2{fill:url(#SVGID_00000060716230720675865300000008526685712882351761_);}
	.st3{fill:url(#SVGID_00000111912875535673409920000001095955222577347981_);}
	.st4{fill:url(#SVGID_00000132059951486384215750000001983406137221287571_);}
</style>
<g class="st0">
	
		<radialGradient id="SVGID_1_" cx="265.6808" cy="203.2076" r="1" gradientTransform="matrix(833.449 0 0 -833.198 -220723.3125 169696.5312)" gradientUnits="userSpaceOnUse">
		<stop  offset="0" style="stop-color:#67E2FF"/>
		<stop  offset="1" style="stop-color:#0E24C4"/>
	</radialGradient>
	<path class="st1" d="M129.2,250.5c-0.2,0-0.4-0.1-0.6-0.2L-86.4,126.3c-0.4-0.3-0.7-0.8-0.5-1.3c0.1-0.5,0.6-0.9,1.1-0.8h430.1
		c0.5,0,1,0.3,1.1,0.8c0.1,0.5-0.1,1-0.5,1.3L129.8,250.4C129.6,250.5,129.4,250.5,129.2,250.5z M-81.6,126.4l210.8,121.7L340,126.4
		C340,126.4-81.6,126.4-81.6,126.4z"/>
	
		<radialGradient id="SVGID_00000124164232830954957650000006683287067586715546_" cx="265.6808" cy="203.2076" r="1" gradientTransform="matrix(833.449 0 0 -833.198 -220723.3125 169696.5312)" gradientUnits="userSpaceOnUse">
		<stop  offset="0" style="stop-color:#67E2FF"/>
		<stop  offset="1" style="stop-color:#0E24C4"/>
	</radialGradient>
	<path style="fill:url(#SVGID_00000124164232830954957650000006683287067586715546_);" d="M559.3,250.5H129.2c-0.5,0-1-0.3-1.1-0.8
		c-0.1-0.2,0-0.5,0.1-0.7c0.1-0.2,0.3-0.4,0.5-0.6l215.1-124.1c0.4-0.2,0.8-0.2,1.1,0l215,124.1c0.4,0.3,0.7,0.8,0.5,1.3
		C560.3,250.2,559.8,250.5,559.3,250.5L559.3,250.5z M133.5,248.3H555L344.3,126.6L133.5,248.3L133.5,248.3z"/>
	
		<radialGradient id="SVGID_00000168810361411493167990000007570827986241816479_" cx="265.6808" cy="203.2076" r="1" gradientTransform="matrix(833.449 0 0 -833.198 -220723.3125 169696.5312)" gradientUnits="userSpaceOnUse">
		<stop  offset="0" style="stop-color:#67E2FF"/>
		<stop  offset="1" style="stop-color:#0E24C4"/>
	</radialGradient>
	<path style="fill:url(#SVGID_00000168810361411493167990000007570827986241816479_);" d="M344.3,374.7c-0.2,0-0.4-0.1-0.6-0.2
		L128.6,250.4c-0.4-0.3-0.7-0.8-0.5-1.3c0.1-0.5,0.6-0.9,1.1-0.9h430.1c0.6,0,1.1,0.5,1.1,1.1c0,0.4-0.2,0.8-0.6,1L344.8,374.5
		C344.7,374.6,344.5,374.7,344.3,374.7L344.3,374.7z M133.5,250.5l210.8,121.7l210.8-121.7L133.5,250.5L133.5,250.5z"/>
	
		<radialGradient id="SVGID_00000083783665832975319100000016531309510067879317_" cx="265.6808" cy="203.2076" r="1" gradientTransform="matrix(833.449 0 0 -833.198 -220723.3125 169696.5312)" gradientUnits="userSpaceOnUse">
		<stop  offset="0" style="stop-color:#67E2FF"/>
		<stop  offset="1" style="stop-color:#0E24C4"/>
	</radialGradient>
	<path style="fill:url(#SVGID_00000083783665832975319100000016531309510067879317_);" d="M344.3,126.4H-85.9c-0.5,0-1-0.3-1.1-0.8
		c-0.1-0.5,0.1-1,0.5-1.3L128.6,0.2c0.4-0.2,0.8-0.2,1.1,0l215.1,124.1c0.5,0.3,0.7,0.8,0.5,1.3
		C345.2,126.1,344.8,126.4,344.3,126.4L344.3,126.4z M-81.6,124.1H340L129.2,2.4C129.2,2.4-81.6,124.1-81.6,124.1z"/>
</g>
</svg>
