<?xml version="1.0" encoding="utf-8"?>
<!-- Generator: Adobe Illustrator 26.2.1, SVG Export Plug-In . SVG Version: 6.00 Build 0)  -->
<svg version="1.1" id="Layer_1" xmlns="http://www.w3.org/2000/svg" xmlns:xlink="http://www.w3.org/1999/xlink" x="0px" y="0px"
	 width="425px" height="506px" viewBox="0 0 425 506" style="enable-background:new 0 0 425 506;" xml:space="preserve">
<style type="text/css">
	.st0{opacity:0.2;fill-rule:evenodd;clip-rule:evenodd;fill:url(#SVGID_1_);enable-background:new    ;}
</style>
<radialGradient id="SVGID_1_" cx="197.7073" cy="268.352" r="1" gradientTransform="matrix(676.412 0 0 -676.208 -133086.2812 181655.8281)" gradientUnits="userSpaceOnUse">
	<stop  offset="0" style="stop-color:#67E2FF"/>
	<stop  offset="1" style="stop-color:#0E24C4"/>
</radialGradient>
<path class="st0" d="M350,0c-0.2,0-0.3,0-0.5,0.1L175.1,100.8c0,0,0,0,0,0l0,0L0.5,201.6c-0.2,0.1-0.4,0.3-0.4,0.6l0,0
	c0,0.2,0,0.3,0,0.5l0,0l0,0.1c0.1,0.2,0.2,0.3,0.4,0.5L174,303.4L0.5,403.5c-0.2,0.1-0.4,0.3-0.4,0.6l0,0c0,0.2,0,0.3,0,0.5
	c0,0,0,0.1,0,0.1c0.1,0.2,0.2,0.3,0.4,0.5L175,505.9c0.3,0.2,0.6,0.2,0.9,0l174.4-100.7c0,0,0.1,0,0.1-0.1l174.4-100.7
	c0.3-0.1,0.5-0.3,0.5-0.6c0.1-0.4,0-0.8-0.3-1c-0.1,0-0.1-0.1-0.2-0.1L351.5,202.6l173.4-100.1c0.3-0.1,0.5-0.3,0.5-0.6
	c0.1-0.4,0-0.8-0.3-1l0,0l0,0l0,0l0,0c0,0,0,0-0.1,0L350.5,0.1C350.3,0,350.2,0,350,0z M521.1,304.5H178.9L350,403.3L521.1,304.5z
	 M521.1,302.7l-125.8,0H178.9L350,203.9L521.1,302.7z M198.5,317.9l-23-13.3L4.4,403.4h342.1L198.5,317.9L198.5,317.9z M178.9,100.7
	h217.6l124.6,0L350,2L178.9,100.7L178.9,100.7z M350,201.3l-171.1-98.7h342.1L350,201.3z M198.4,116l148.1,85.5H4.4l171.1-98.7
	C175.5,102.7,198.4,116,198.4,116z M346.5,203.3H4.4l171.1,98.8L346.5,203.3L346.5,203.3z M346.5,405.3H4.4L175.5,504L346.5,405.3z"
	/>
</svg>
