<?xml version="1.0" encoding="utf-8"?>
<!-- Generator: Adobe Illustrator 26.2.1, SVG Export Plug-In . SVG Version: 6.00 Build 0)  -->
<svg version="1.1" id="Layer_1" xmlns="http://www.w3.org/2000/svg" xmlns:xlink="http://www.w3.org/1999/xlink" x="0px" y="0px"
	 width="351px" height="431px" viewBox="0 0 351 431" style="enable-background:new 0 0 351 431;" xml:space="preserve">
<style type="text/css">
	.st0{opacity:0.2;fill-rule:evenodd;clip-rule:evenodd;fill:url(#SVGID_1_);enable-background:new    ;}
</style>
<radialGradient id="SVGID_1_" cx="160.7206" cy="231.349" r="1" gradientTransform="matrix(576.153 0 0 -575.979 -92049.9844 133417.4688)" gradientUnits="userSpaceOnUse">
	<stop  offset="0" style="stop-color:#67E2FF"/>
	<stop  offset="1" style="stop-color:#0E24C4"/>
</radialGradient>
<path class="st0" d="M298.1,0c-0.1,0-0.3,0-0.4,0.1L149.1,85.9c0,0-0.1,0-0.1,0L0.4,171.7c-0.2,0.1-0.3,0.3-0.4,0.5l0,0
	c-0.1,0.3,0.1,0.7,0.4,0.9l147.8,85.3L0.4,343.7c-0.2,0.1-0.3,0.3-0.4,0.5l0,0c-0.1,0.3,0.1,0.7,0.4,0.9l148.7,85.8
	c0.2,0.1,0.5,0.1,0.8,0l148.6-85.8c0,0,0.1,0,0.1-0.1l148.6-85.8c0.1,0,0.1-0.1,0.2-0.1c0.3-0.3,0.4-0.8,0.1-1.1
	c-0.1-0.1-0.2-0.2-0.3-0.2l-147.7-85.3l147.7-85.3c0.2-0.1,0.4-0.3,0.5-0.5c0.1-0.4-0.1-0.8-0.4-0.9L298.5,0.1
	C298.4,0,298.3,0,298.1,0z M443.8,259.4H152.4l145.7,84.1L443.8,259.4L443.8,259.4z M443.9,257.8l-106.1,0H152.4l145.7-84.1
	L443.9,257.8z M169,270.8l-19.6-11.3L3.7,343.6h291.4L169,270.8z M152.4,85.8h184.9l106.6,0L298.1,1.7L152.4,85.8L152.4,85.8z
	 M298.1,171.5L152.4,87.4h291.4L298.1,171.5z M169,98.8l126.2,72.8H3.7l145.7-84.1C149.5,87.5,169,98.8,169,98.8z M295.2,173.2H3.7
	l145.7,84.1L295.2,173.2L295.2,173.2z M295.2,345.2H3.7l145.7,84.1L295.2,345.2z"/>
</svg>
