<?xml version="1.0" encoding="utf-8"?>
<!-- Generator: Adobe Illustrator 26.2.1, SVG Export Plug-In . SVG Version: 6.00 Build 0)  -->
<svg version="1.1" id="Layer_1" xmlns="http://www.w3.org/2000/svg" xmlns:xlink="http://www.w3.org/1999/xlink" x="0px" y="0px"
	 width="72px" height="72px" viewBox="0 0 72 72" style="enable-background:new 0 0 72 72;" xml:space="preserve">
<style type="text/css">
	.st0{fill-rule:evenodd;clip-rule:evenodd;fill:url(#SVGID_1_);}
</style>
<g>
	<path d="M53.1,14.5c-0.2-1.2-0.9-2.7-2.6-4.1h0l0,0l0,0c-1.4-1.2-3.2-2.2-5.4-3v0l0,0c-4.3-1.6-10-2.4-16-2.4v0v0l0,0
		c-6,0-11.6,0.9-16,2.4l0,0l0.1,0.2l-0.1-0.2l0,0h0l0,0l0,0c-2.2,0.8-4.1,1.8-5.4,3l0,0l0,0c-2.1,1.8-2.6,3.8-2.6,5.1l0,0v0V49l0,0
		c0,1.4,0.5,3.3,2.6,5.1l0,0l0,0c1.4,1.2,3.2,2.2,5.4,3v0l0,0c4.3,1.6,10,2.4,16,2.4l0,0v0c0.7,0,1.4,0,2,0v0l0,0l1,0l0,0v-1l0,0
		l0,0v-3.6v0v-1l0,0l-1,0l0,0l0,0c-0.6,0-1.3,0-2,0v0l0,0c-5.4,0-10.4-0.8-14.1-2.1l0,0l0,0h0l0,0l0,0c-1.8-0.6-2.9-1.3-3.6-1.9
		c-0.7-0.6-0.8-0.9-0.8-0.9l0,0v-4.1c0.8,0.4,1.6,0.7,2.4,1l0,0l0,0c4.3,1.6,10,2.4,16,2.4v0l0,0c0.7,0,1.4,0,2,0l1,0l0,0v-1v0v-3.6
		l0,0v0l0,0v-1l0,0l-1,0l0,0l0,0c-0.6,0-1.3,0-2,0v0l0,0c-5.4,0-10.4-0.8-14.1-2.1l0,0l0,0l0,0c-1.8-0.6-2.9-1.3-3.6-1.9
		c-0.7-0.6-0.8-0.9-0.8-0.9h0l0,0v-4.1c0.8,0.4,1.6,0.7,2.4,1l0,0v0c4.3,1.6,10,2.4,16,2.4l0,0v0c0.7,0,1.4,0,2,0v0l0,0l1,0l0,0v-1
		l0,0l0,0v-3.6v0v-1l0,0l-1,0l0,0l0,0c-0.6,0-1.3,0-2,0c-5.4,0-10.4-0.8-14.1-2.1l0,0l0,0h0l0,0L15,29.7l0.1-0.2l0,0
		c-1.8-0.6-2.9-1.3-3.6-1.9c-0.7-0.6-0.8-0.9-0.8-0.9h0l0,0v-4.1c0.8,0.4,1.6,0.7,2.4,1.1l0,0l0,0l0,0c4.3,1.6,10,2.4,16,2.4
		c1.8,0,3.6-0.1,5.3-0.2c4-0.3,7.7-1.1,10.7-2.2h0l0,0l0,0c0.9-0.3,1.7-0.7,2.4-1v4.7l0,0h5.6l0,0V15.5L53.1,14.5z M10.7,26.7
		C10.7,26.7,10.7,26.7,10.7,26.7C10.7,26.7,10.7,26.7,10.7,26.7z M10.7,26.8C10.7,26.8,10.7,26.8,10.7,26.8
		C10.7,26.8,10.7,26.8,10.7,26.8z M10.8,26.9C10.8,26.9,10.8,26.9,10.8,26.9C10.8,26.9,10.8,26.9,10.8,26.9z M10.7,37.9
		C10.7,37.9,10.7,37.9,10.7,37.9C10.7,37.9,10.7,37.9,10.7,37.9z M10.7,37.9C10.7,37.9,10.8,37.9,10.7,37.9
		C10.8,37.9,10.7,37.9,10.7,37.9z M10.8,38.1C10.8,38.1,10.8,38.1,10.8,38.1C10.8,38.1,10.8,38.1,10.8,38.1z M47.5,15.7
		C47.5,15.7,47.5,15.7,47.5,15.7c-0.1,0.2-0.3,0.5-0.7,0.7c-0.7,0.6-1.8,1.2-3.6,1.9l0,0l0,0l0,0c-3.7,1.3-8.7,2.1-14.1,2.1
		s-10.4-0.8-14.1-2.1l0,0l0,0l0,0c-1.8-0.6-2.9-1.3-3.6-1.9c-0.4-0.3-0.5-0.5-0.6-0.7c0,0,0,0,0,0c-0.1-0.2-0.1-0.2-0.1-0.2l0,0v0
		c0,0,0.1-0.4,0.8-0.9c0.7-0.6,1.8-1.2,3.6-1.9c3.7-1.3,8.7-2.1,14.1-2.1c5.4,0,10.4,0.8,14.1,2.1l0,0l0,0l0,0
		c1.8,0.6,2.9,1.3,3.6,1.9c0.7,0.6,0.8,0.9,0.8,0.9c0,0,0,0,0,0.1C47.5,15.6,47.5,15.6,47.5,15.7z M10.7,15.5L10.7,15.5
		C10.7,15.5,10.7,15.5,10.7,15.5C10.7,15.5,10.7,15.5,10.7,15.5L10.7,15.5z M10.9,15.9C10.9,15.9,10.9,15.9,10.9,15.9
		C10.9,15.9,10.9,15.9,10.9,15.9z M10.8,15.7C10.8,15.7,10.8,15.7,10.8,15.7C10.8,15.7,10.8,15.7,10.8,15.7z M10.8,15.6
		C10.8,15.6,10.8,15.6,10.8,15.6C10.8,15.6,10.8,15.6,10.8,15.6z M10.7,15.5C10.7,15.5,10.7,15.5,10.7,15.5
		C10.7,15.5,10.7,15.5,10.7,15.5z M47.6,15.5L47.6,15.5L47.6,15.5L47.6,15.5C47.6,15.5,47.6,15.5,47.6,15.5
		C47.6,15.5,47.6,15.5,47.6,15.5z M10.7,49C10.7,49,10.7,49,10.7,49L10.7,49L10.7,49C10.7,49,10.7,49,10.7,49z M10.9,49.4
		C10.9,49.4,10.9,49.4,10.9,49.4C10.9,49.4,10.9,49.4,10.9,49.4z M10.8,49.2C10.8,49.2,10.8,49.2,10.8,49.2
		C10.8,49.2,10.8,49.2,10.8,49.2z M10.8,49.1C10.8,49.1,10.8,49.1,10.8,49.1C10.8,49.1,10.8,49.1,10.8,49.1z M10.7,49
		C10.7,49,10.7,49,10.7,49C10.7,49,10.7,49,10.7,49z M10.7,37.8C10.7,37.8,10.7,37.8,10.7,37.8L10.7,37.8
		C10.7,37.8,10.7,37.8,10.7,37.8z M10.7,26.7C10.7,26.7,10.7,26.6,10.7,26.7L10.7,26.7C10.7,26.6,10.7,26.7,10.7,26.7z"/>
	
		<radialGradient id="SVGID_1_" cx="20.7338" cy="50.9711" r="1" gradientTransform="matrix(26.9655 95.7339 334.7703 -94.2952 -17586.9531 2846.4409)" gradientUnits="userSpaceOnUse">
		<stop  offset="0" style="stop-color:#297EFF"/>
		<stop  offset="1" style="stop-color:#1C2FF7"/>
	</radialGradient>
	<path class="st0" d="M36.3,50c0,4.1,2.3,7.3,4.9,9.8c2.1,2.1,4.8,3.9,7.2,5.6c0.5,0.3,1,0.7,1.5,1c1.1,0.8,2.5,0.8,3.5,0
		c0.5-0.3,1-0.7,1.5-1c2.4-1.7,5-3.5,7.2-5.6c2.6-2.5,4.9-5.7,4.9-9.8V33.5c0-1.6-1.4-3-3-3H39.3c-1,0-1.7,0.5-2.2,1
		c-0.4,0.5-0.8,1.2-0.8,2L36.3,50L36.3,50z M42.4,36.5h18.5V50c0,1.7-0.9,3.4-3.1,5.5c-1.7,1.6-3.8,3.2-6.2,4.8
		c-2.3-1.7-4.5-3.2-6.2-4.8c-2.1-2-3.1-3.7-3.1-5.5C42.4,50,42.4,36.5,42.4,36.5z"/>
</g>
</svg>
