<?xml version="1.0" encoding="utf-8"?>
<!-- Generator: Adobe Illustrator 26.2.1, SVG Export Plug-In . SVG Version: 6.00 Build 0)  -->
<svg version="1.1" id="Layer_1" xmlns="http://www.w3.org/2000/svg" xmlns:xlink="http://www.w3.org/1999/xlink" x="0px" y="0px"
	 width="28px" height="30.2px" viewBox="0 0 28 30.2" style="enable-background:new 0 0 28 30.2;" xml:space="preserve">
<style type="text/css">
	.st0{fill:#1A60F6;}
	.st1{fill:none;}
</style>
<g id="a">
</g>
<g id="b">
	<g id="c">
		<g>
			<path class="st0" d="M14.4,10.6V5.2H0v25h28V10.6H14.4z M11.3,8.4v2.2H8.8V8.4H11.3z M8.8,15.9v-2.2h2.5v2.2H8.8z M11.3,19.1v2.8
				H8.8v-2.8L11.3,19.1z M3.1,8.4h2.5v2.2H3.1V8.4z M3.1,13.7h2.5v2.2H3.1V13.7z M3.1,19.1h2.5v2.8H3.1V19.1z M3.1,27.1v-2h2.5v2
				H3.1z M8.8,27.1v-2h2.5v2H8.8z M24.9,27.1H14.4v-2h2.7V22h-2.7v-2.8h2.7v-3.1h-2.7v-2.4h10.5L24.9,27.1L24.9,27.1z M22.6,19.1
				h-3.1V16h3.1V19.1z M22.6,25h-3.1v-3.1h3.1V25z"/>
			<rect class="st1" width="28" height="30.2"/>
		</g>
	</g>
</g>
</svg>
