<?xml version="1.0" encoding="utf-8"?>
<!-- Generator: Adobe Illustrator 26.2.1, SVG Export Plug-In . SVG Version: 6.00 Build 0)  -->
<svg version="1.1" id="Layer_1" xmlns="http://www.w3.org/2000/svg" xmlns:xlink="http://www.w3.org/1999/xlink" x="0px" y="0px"
	 width="30px" height="30px" viewBox="0 0 30 30" style="enable-background:new 0 0 30 30;" xml:space="preserve">
<style type="text/css">
	.st0{fill:#2867B2;}
</style>
<path class="st0" d="M28,0H2C0.9,0,0,0.9,0,2V28c0,1.1,0.9,2,2,2H28c1.1,0,2-0.9,2-2V2C30,0.9,29.1,0,28,0z M4.6,25.9V11.4h4.5v14.5
	l0,0H4.6z M6.8,9.5c-1.5,0-2.6-1.2-2.6-2.7s1.2-2.7,2.6-2.7c1.5,0,2.6,1.2,2.6,2.7S8.3,9.5,6.8,9.5z M25.8,25.9h-4.5v-7.6
	c0-2.1-0.8-3.2-2.4-3.2c-1.8,0-2.7,1.2-2.7,3.2v7.6h-4.3V11.4h4.3v1.9c0,0,1.3-2.4,4.4-2.4c3.1,0,5.3,1.9,5.3,5.7V25.9z"/>
</svg>
