<?xml version="1.0" encoding="utf-8"?>
<!-- Generator: Adobe Illustrator 26.2.1, SVG Export Plug-In . SVG Version: 6.00 Build 0)  -->
<svg version="1.1" id="Layer_1" xmlns="http://www.w3.org/2000/svg" xmlns:xlink="http://www.w3.org/1999/xlink" x="0px" y="0px"
	 width="60px" height="60px" viewBox="0 0 60 60" style="enable-background:new 0 0 60 60;" xml:space="preserve">
<style type="text/css">
	.st0{fill:#EDEDED;}
	.st1{fill:#1A60F6;}
</style>
<g>
	<circle class="st0" cx="30" cy="30" r="30"/>
	<path class="st1" d="M37.4,39.6L30,32.1l-7.4,7.4c-0.6,0.6-1.6,0.6-2.1,0l0,0c-0.6-0.6-0.6-1.6,0-2.1l7.4-7.4l-7.4-7.4
		c-0.6-0.6-0.6-1.6,0-2.1l0,0c0.6-0.6,1.6-0.6,2.1,0l7.4,7.4l7.4-7.4c0.6-0.6,1.6-0.6,2.1,0v0c0.6,0.6,0.6,1.6,0,2.1L32.1,30
		l7.4,7.4c0.6,0.6,0.6,1.6,0,2.1l0,0C39,40.1,38,40.1,37.4,39.6z"/>
</g>
</svg>
