<svg width="448" height="431" viewBox="0 0 448 431" fill="none" xmlns="http://www.w3.org/2000/svg">
    <path opacity=".2" fill-rule="evenodd" clip-rule="evenodd" d="M298.12 0a.771.771 0 0 0-.396.106L149.137 85.868a.783.783 0 0 0-.077.04L.396 171.709a.8.8 0 0 0-.366.472l-.004.013a.796.796 0 0 0 .37.892l147.81 85.314L.396 343.709a.8.8 0 0 0-.366.472l-.004.013a.796.796 0 0 0 .37.892l148.664 85.807a.787.787 0 0 0 .792 0l148.565-85.75a.713.713 0 0 0 .115-.055l148.557-85.757a.942.942 0 0 0 .178-.103.795.795 0 0 0-.165-1.355l-147.727-85.271 147.714-85.271a.786.786 0 0 0 .46-.526.793.793 0 0 0-.447-.932L298.516.106A.756.756 0 0 0 298.12 0zm145.706 259.391H152.421l145.706 84.094 145.699-84.094zm.032-1.589-106.133.001H152.419l145.701-84.098 145.738 84.097zm-274.842 12.992-19.56-11.287L3.749 343.604h291.418l-126.151-72.81zm-16.597-184.99h184.885l106.554-.002L298.12 1.705 152.419 85.804zm145.708 85.681L152.421 87.39h291.405l-145.699 84.095zM168.963 98.764l126.204 72.84H3.749l145.707-84.097 19.507 11.257zm126.205 74.428H3.749l145.707 84.117 145.712-84.117zm0 172H3.749l145.707 84.117 145.712-84.117z" fill="url(#e7bd4qbbea)"/>
    <defs>
        <radialGradient id="e7bd4qbbea" cx="0" cy="0" r="1" gradientUnits="userSpaceOnUse" gradientTransform="matrix(576.153 0 0 575.979 549.651 165.312)">
            <stop stop-color="#67E2FF"/>
            <stop offset="1" stop-color="#0E24C4"/>
        </radialGradient>
    </defs>
</svg>
